<svg width="24" height="33" viewBox="0 0 24 33" fill="none" xmlns="http://www.w3.org/2000/svg">
<path d="M18.8759 13.2112C18.2982 13.5322 20.2519 16.7041 21.2045 16.2807C21.8396 15.8574 19.6168 12.7996 18.8759 13.2112Z" fill="#0F172A"/>
<path d="M6.91531 30.8346C7.15191 29.8291 11.3609 29.4586 12.0489 31.258C12.2605 33.6925 6.49192 32.634 6.91531 30.8346Z" fill="#0F172A"/>
<path d="M1.35838 26.7595C0.882076 27.1259 3.26361 30.3583 3.73992 29.8291C4.21623 29.5645 2.04638 26.2303 1.35838 26.7595Z" fill="#0F172A"/>
<path d="M2.5227 14.8518C1.72885 14.177 3.77168 11.3589 5.01008 12.0469C5.9627 12.5761 3.64342 15.8044 2.5227 14.8518Z" fill="#0F172A"/>
<path d="M1.72885 18.2918C3.36946 18.3977 3.05193 23.5841 0.934998 23.4254C-0.811463 22.8961 0.141158 18.0272 1.72885 18.2918Z" fill="#0F172A"/>
<path d="M15.6476 31.8401C14.8538 30.8875 17.7116 28.9294 18.8759 29.8291C19.7227 31.0992 16.4415 32.7928 15.6476 31.8401Z" fill="#0F172A"/>
<path d="M17.2529 3.6353C19.0523 4.69857 15.0831 8.63703 13.5757 8.44483C13.5534 8.44496 13.4281 8.43501 13.4063 8.42969C13.3223 8.40914 13.2416 8.35493 13.1649 8.32084C12.9362 8.1684 12.939 7.85753 13.0944 7.38949C13.1921 7.09496 13.3502 6.75997 13.549 6.41227C14.4378 4.85731 16.0886 2.9473 17.2529 3.6353Z" fill="#0F172A"/>
<path d="M12.0604 7.25947C12.0785 6.99505 12.0425 6.71033 11.9607 6.41227C11.1283 3.38121 5.87449 -1.60409 4.08593 0.505417C1.9258 3.05314 8.20308 8.71592 10.6969 8.42969C10.8441 8.43978 10.9856 8.43553 11.1203 8.41569C11.1625 8.40946 11.2041 8.4017 11.245 8.39237C11.3809 8.36136 11.5091 8.31298 11.6283 8.24582C11.8985 7.97168 12.0345 7.63618 12.0604 7.25947Z" fill="#0F172A"/>
<path d="M12.0604 7.25947C12.0345 7.63618 11.8985 7.97168 11.6283 8.24582C11.5091 8.31298 11.3809 8.36136 11.245 8.39237C11.6435 8.30905 12.3182 8.03084 13.4063 8.42969C13.3223 8.40914 13.2416 8.35493 13.1649 8.32084C12.9362 8.1684 12.939 7.85753 13.0944 7.38949C12.6443 7.68282 12.3056 7.51348 12.0604 7.25947Z" fill="#0F172A"/>
<path d="M12.0604 7.25947C12.3056 7.51348 12.6443 7.68282 13.0944 7.38949C13.1921 7.09496 13.3502 6.75997 13.549 6.41227C12.8721 6.94031 12.208 6.63228 11.9607 6.41227C12.0425 6.71033 12.0785 6.99505 12.0604 7.25947Z" fill="#0F172A"/>
<path d="M8.9793 19.2974C14.007 14.2697 2.41685 12.7349 6.17438 19.0857C6.56248 19.9324 6.96823 21.9012 5.48639 23.002C4.00454 24.1028 4.28679 25.5423 4.58669 26.2303C5.85685 28.0508 7.47982 27.4828 8.13254 26.9712C10.0801 25.8704 11.9783 26.7242 12.6839 27.2888C13.4037 28.1779 14.007 28.3649 14.2187 28.3472C19.0876 28.3472 16.9178 22.5257 13.9541 23.7958C13.4037 24.2192 12.6663 24.5368 12.3664 24.6426C7.28577 25.5952 7.49746 20.6734 8.9793 19.2974Z" fill="#0F172A"/>
<path d="M14.5362 11.2531C14.5362 8.65982 7.70914 9.50659 8.87345 11.9411C9.29684 12.5232 10.8316 12.7349 11.4667 13.37C13.2132 14.2697 13.4425 16.316 13.2131 17.0746C12.324 19.4879 14.1658 20.8321 15.1713 20.8321H16.6002C18.5055 20.9168 19.6168 23.3195 19.6168 24.5368C19.6168 26.1774 20.3048 26.8815 20.7812 26.6537C23.7025 25.2565 23.3744 21.4143 22.5276 21.0968C22.3865 21.0262 21.7867 20.9062 20.5165 20.9909C19.2464 21.0756 18.6113 19.4385 18.4525 18.6094C18.4525 16.4395 16.9178 15.7298 16.8119 15.6986C13.5095 14.7248 13.9541 12.3644 14.5362 11.2531Z" fill="#0F172A"/>
</svg>
