<svg width="494" height="128" viewBox="0 0 494 128" fill="none" xmlns="http://www.w3.org/2000/svg">
<path d="M74.0056 51.7438C71.7405 53.0009 79.4004 65.4244 83.1353 63.7661C85.6252 62.1079 76.9105 50.1316 74.0056 51.7438Z" fill="#FBBF24"/>
<path d="M27.1124 120.769C28.04 116.83 44.5417 115.379 47.2391 122.427C48.0691 131.962 25.4525 127.816 27.1124 120.769Z" fill="#FBBF24"/>
<path d="M5.32572 104.808C3.4583 106.243 12.7954 118.903 14.6629 116.83C16.5303 115.794 8.02312 102.735 5.32572 104.808Z" fill="#FBBF24"/>
<path d="M9.89058 58.1695C6.77817 55.5267 14.7874 44.4889 19.6427 47.1836C23.3776 49.2564 14.2845 61.9006 9.89058 58.1695Z" fill="#FBBF24"/>
<path d="M6.77817 71.6429C13.2104 72.0574 11.9655 92.371 3.66579 91.7492C-3.18145 89.6764 0.553429 70.6064 6.77817 71.6429Z" fill="#FBBF24"/>
<path d="M61.3486 124.707C58.2362 120.976 69.4408 113.307 74.0056 116.83C77.3255 121.805 64.461 128.438 61.3486 124.707Z" fill="#FBBF24"/>
<path d="M67.6425 14.2382C74.6972 18.4027 59.1354 33.8283 53.2252 33.0755C53.1381 33.076 52.6467 33.0371 52.5613 33.0162C52.2317 32.9357 51.9153 32.7234 51.6146 32.5899C50.7181 31.9929 50.7292 30.7752 51.3382 28.9421C51.7214 27.7885 52.3413 26.4765 53.1206 25.1147C56.6054 19.0244 63.0776 11.5436 67.6425 14.2382Z" fill="#15803D"/>
<path d="M47.2843 28.4329C47.3555 27.3972 47.2143 26.2821 46.8933 25.1147C43.63 13.243 23.0317 -6.28269 16.0194 1.97955C7.55036 11.9581 32.1613 34.1373 41.9388 33.0162C42.5156 33.0557 43.0703 33.0391 43.5985 32.9614C43.7643 32.937 43.9274 32.9066 44.0877 32.8701C44.6205 32.7486 45.123 32.5591 45.5903 32.2961C46.6499 31.2224 47.1828 29.9083 47.2843 28.4329Z" fill="#15803D"/>
<path d="M47.2843 28.4329C47.1828 29.9083 46.6499 31.2224 45.5903 32.2961C45.123 32.5591 44.6205 32.7486 44.0877 32.8701C45.6498 32.5437 48.2951 31.4541 52.5613 33.0162C52.2317 32.9357 51.9153 32.7234 51.6146 32.5899C50.7181 31.9929 50.7292 30.7752 51.3382 28.9421C49.5737 30.091 48.2459 29.4277 47.2843 28.4329Z" fill="#15803D"/>
<path d="M47.2843 28.4329C48.2459 29.4277 49.5737 30.091 51.3382 28.9421C51.7214 27.7885 52.3413 26.4765 53.1206 25.1147C50.4666 27.1828 47.8633 25.9764 46.8933 25.1147C47.2143 26.2821 47.3555 27.3972 47.2843 28.4329Z" fill="#15803D"/>
<path d="M129.462 107.251V36.5161H147.65C154.264 36.5161 159.176 38.4593 162.385 42.3459C165.627 46.2 167.248 51.1553 167.248 57.2118C167.248 63.2684 165.627 68.2561 162.385 72.175C159.176 76.0615 154.264 78.0048 147.65 78.0048H134.812V107.251H129.462ZM134.812 73.1952H147.65C152.902 73.1952 156.582 71.6406 158.689 68.5314C160.797 65.4222 161.85 61.6652 161.85 57.2604C161.85 52.8233 160.797 49.0663 158.689 45.9895C156.582 42.9126 152.902 41.358 147.65 41.3256H134.812V73.1952Z" fill="#0F172A"/>
<path d="M175.078 73.7782V69.9888C175.078 57.7139 177.331 48.9044 181.838 43.5604C186.344 38.2164 192.245 35.5444 199.539 35.5444C206.866 35.5444 212.783 38.2164 217.29 43.5604C221.796 48.9044 224.049 57.7139 224.049 69.9888V73.7782C224.049 86.0532 221.796 94.8627 217.29 100.207C212.783 105.551 206.866 108.223 199.539 108.223C192.245 108.223 186.344 105.551 181.838 100.207C177.331 94.8627 175.078 86.0532 175.078 73.7782ZM180.525 73.7782C180.525 84.5633 182.243 92.2069 185.68 96.7088C189.116 101.178 193.736 103.413 199.539 103.413C205.343 103.413 209.963 101.178 213.399 96.7088C216.836 92.2069 218.554 84.5633 218.554 73.7782V69.9888C218.554 59.2037 216.836 51.5764 213.399 47.1069C209.963 42.605 205.343 40.354 199.539 40.354C193.736 40.354 189.116 42.605 185.68 47.1069C182.243 51.5764 180.525 59.2037 180.525 69.9888V73.7782Z" fill="#0F172A"/>
<path d="M234.602 107.251V36.5161H240.681L270.492 93.308C271.043 94.3445 271.513 95.3809 271.902 96.4173C272.324 97.4537 272.68 98.4739 272.972 99.4779H273.215C273.15 98.3767 273.102 97.2432 273.069 96.0772C273.069 94.8788 273.069 93.7291 273.069 92.6279V36.5161H277.981V107.251H272.097L242.092 50.0703C241.573 49.0987 241.103 48.0785 240.681 47.0097C240.26 45.9409 239.903 44.9045 239.611 43.9005H239.368C239.433 45.0017 239.465 46.1838 239.465 47.4469C239.498 48.7101 239.514 49.9084 239.514 51.042V107.251H234.602Z" fill="#0F172A"/>
<path d="M287.902 88.4499V84.8062H296.704V87.9641C296.704 92.466 297.887 95.8181 300.254 98.0205C302.653 100.19 305.976 101.275 310.224 101.275C314.438 101.275 317.68 100.207 319.95 98.069C322.219 95.9314 323.354 93.0651 323.354 89.4701C323.354 86.1989 322.316 83.5917 320.241 81.6484C318.167 79.6728 314.211 77.6 308.376 75.43C301.827 73.0009 296.963 70.2965 293.786 67.3168C290.641 64.3048 289.069 59.9324 289.069 54.1998C289.069 48.6291 290.917 44.1272 294.613 40.6941C298.309 37.261 303.415 35.5444 309.932 35.5444C316.254 35.5444 321.328 37.1962 325.153 40.4998C328.979 43.7709 330.892 48.451 330.892 54.5399V57.2118H322.187V55.0257C322.187 51.1391 321.149 48.1109 319.074 45.9409C316.999 43.7385 313.984 42.6373 310.029 42.6373C305.814 42.6373 302.751 43.6252 300.838 45.6008C298.925 47.5441 297.969 50.2161 297.969 53.6168C297.969 56.7584 299.038 59.2685 301.178 61.147C303.318 63.0255 307.338 65.0497 313.239 67.2197C319.755 69.5516 324.553 72.3855 327.633 75.7215C330.713 79.025 332.253 83.3974 332.253 88.8385C332.253 94.7331 330.259 99.4455 326.272 102.976C322.284 106.474 316.967 108.223 310.321 108.223C303.61 108.223 298.195 106.555 294.078 103.219C289.961 99.8828 287.902 94.9598 287.902 88.4499Z" fill="#FBBF24"/>
<path d="M341.153 107.251V36.5161H350.49V69.2601L375.632 36.5161H385.504L350.49 81.3084V107.251H341.153ZM377.14 107.251L353.602 71.252L359.389 64.0133L387.839 107.251H377.14Z" fill="#FBBF24"/>
<path d="M388.276 107.251L409.868 36.5161H421.297L442.694 107.251H433.406L417.114 51.965C416.725 50.6371 416.385 49.4874 416.093 48.5157C415.834 47.5117 415.558 46.4915 415.266 45.4551H415.121C414.829 46.4915 414.537 47.5117 414.245 48.5157C413.986 49.4874 413.662 50.6371 413.273 51.965L397.37 107.251H388.276ZM398.246 89.0329L399.899 82.3286H430.828L432.579 89.0329H398.246Z" fill="#FBBF24"/>
<path d="M447.752 107.251V36.5161H457.575L483.35 87.1868C483.836 88.2232 484.274 89.292 484.663 90.3931C485.084 91.4943 485.441 92.5631 485.733 93.5995H485.976C485.911 92.4983 485.862 91.3486 485.83 90.1502C485.83 88.9519 485.83 87.8021 485.83 86.7009V36.5161H494V107.251H484.517L458.402 56.1431C457.916 55.1714 457.462 54.1512 457.04 53.0824C456.651 51.9812 456.311 50.9286 456.019 49.9246H455.776C455.841 51.0258 455.873 52.1755 455.873 53.3739C455.906 54.5399 455.922 55.6896 455.922 56.8232V107.251H447.752Z" fill="#FBBF24"/>
<path d="M35.2046 75.5812C54.9164 55.8894 9.47557 49.8783 24.2075 74.7521C25.7291 78.0686 27.3199 85.7795 21.5101 90.0909C15.7003 94.4024 16.807 100.04 17.9827 102.735C22.9626 109.866 29.3256 107.641 31.8847 105.637C39.5204 101.326 46.9625 104.67 49.729 106.881C52.5509 110.363 54.9163 111.095 55.7463 111.026C74.8356 111.026 66.3284 88.2254 54.7088 93.2002C52.5509 94.8584 49.6599 96.1021 48.4841 96.5167C28.5648 100.248 29.3948 80.9705 35.2046 75.5812Z" fill="#FBBF24"/>
<path d="M56.9912 44.0744C56.9912 33.9176 30.2247 37.2341 34.7896 46.769C36.4495 49.0491 42.4668 49.8783 44.9567 52.3656C51.8039 55.8894 52.7031 63.9043 51.8039 66.8754C48.3181 76.3274 55.5388 81.5924 59.4811 81.5924H65.0834C72.5531 81.924 76.9105 91.3346 76.9105 96.1021C76.9105 102.528 79.6079 105.286 81.4753 104.393C92.9289 98.9211 91.6424 83.8725 88.3226 82.6288C87.7693 82.3524 85.4177 81.8826 80.4379 82.2142C75.4581 82.5459 72.9681 76.134 72.3456 72.8865C72.3456 64.388 66.3284 61.6083 65.9134 61.486C52.9659 57.6721 54.7088 48.4273 56.9912 44.0744Z" fill="#FBBF24"/>
</svg>
